STARTFONT 2.1
FONT -FontForge-Pixel Arial 11-Book-R-Normal--16-160-72-72-P-112-ISO10646-1
SIZE 16 72 72
FONTBOUNDINGBOX 22 20 -2 -4
COMMENT "Generated by fontforge, http://fontforge.sourceforge.net"
COMMENT "(c)2001 | Max Remix"
STARTPROPERTIES 39
FOUNDRY "FontForge"
FAMILY_NAME "Pixel Arial 11"
WEIGHT_NAME "Book"
SLANT "R"
SETWIDTH_NAME "Normal"
ADD_STYLE_NAME ""
PIXEL_SIZE 16
POINT_SIZE 160
RESOLUTION_X 72
RESOLUTION_Y 72
SPACING "P"
AVERAGE_WIDTH 112
CHARSET_REGISTRY "ISO10646"
CHARSET_ENCODING "1"
FONTNAME_REGISTRY ""
CHARSET_COLLECTIONS "ISO10646-1"
FONT_NAME "PixelArial11"
FACE_NAME "Pixel Arial 11"
COPYRIGHT "(c)2001 | Max Remix"
FONT_VERSION "Macromedia Fontographer 4.1.4 8/9/01"
FONT_ASCENT 13
FONT_DESCENT 3
UNDERLINE_POSITION -2
UNDERLINE_THICKNESS 1
X_HEIGHT 11
CAP_HEIGHT 15
RAW_ASCENT 800
RAW_DESCENT 200
NORM_SPACE 6
RELATIVE_WEIGHT 40
RELATIVE_SETWIDTH 50
SUPERSCRIPT_X 0
SUPERSCRIPT_Y 7
SUPERSCRIPT_SIZE 10
SUBSCRIPT_X 0
SUBSCRIPT_Y 2
SUBSCRIPT_SIZE 10
AVG_LOWERCASE_WIDTH 109
AVG_UPPERCASE_WIDTH 138
ENDPROPERTIES
CHARS 95
STARTCHAR space
ENCODING 32
SWIDTH 375 0
DWIDTH 6 0
BBX 1 1 0 0
BITMAP
00
ENDCHAR
STARTCHAR exclam
ENCODING 33
SWIDTH 250 0
DWIDTH 4 0
BBX 2 16 0 0
BITMAP
C0
C0
C0
C0
C0
C0
C0
C0
C0
C0
C0
C0
00
00
C0
C0
ENDCHAR
STARTCHAR quotedbl
ENCODING 34
SWIDTH 500 0
DWIDTH 8 0
BBX 6 6 0 10
BITMAP
CC
CC
CC
CC
CC
CC
ENDCHAR
STARTCHAR numbersign
ENCODING 35
SWIDTH 750 0
DWIDTH 12 0
BBX 10 16 0 0
BITMAP
0CC0
0CC0
0CC0
0CC0
FFC0
FFC0
3300
3300
3300
3300
FFC0
FFC0
CC00
CC00
CC00
CC00
ENDCHAR
STARTCHAR dollar
ENCODING 36
SWIDTH 750 0
DWIDTH 12 0
BBX 10 18 0 -2
BITMAP
3F00
3F00
CCC0
CCC0
CC00
CC00
3F00
3F00
0CC0
0CC0
0CC0
0CC0
CCC0
CCC0
3F00
3F00
0C00
0C00
ENDCHAR
STARTCHAR percent
ENCODING 37
SWIDTH 1250 0
DWIDTH 20 0
BBX 18 16 0 0
BITMAP
3C0C00
3C0C00
C33000
C33000
C33000
C33000
3CC000
3CC000
00CF00
00CF00
0330C0
0330C0
0330C0
0330C0
0C0F00
0C0F00
ENDCHAR
STARTCHAR ampersand
ENCODING 38
SWIDTH 875 0
DWIDTH 14 0
BBX 12 16 0 0
BITMAP
0F00
0F00
30C0
30C0
30C0
30C0
0F00
0F00
3300
3300
C0F0
C0F0
C0C0
C0C0
3F30
3F30
ENDCHAR
STARTCHAR quotesingle
ENCODING 39
SWIDTH 250 0
DWIDTH 4 0
BBX 2 6 0 10
BITMAP
C0
C0
C0
C0
C0
C0
ENDCHAR
STARTCHAR parenleft
ENCODING 40
SWIDTH 500 0
DWIDTH 8 0
BBX 6 20 0 -4
BITMAP
0C
0C
30
30
C0
C0
C0
C0
C0
C0
C0
C0
C0
C0
C0
C0
30
30
0C
0C
ENDCHAR
STARTCHAR parenright
ENCODING 41
SWIDTH 500 0
DWIDTH 8 0
BBX 6 20 0 -4
BITMAP
C0
C0
30
30
0C
0C
0C
0C
0C
0C
0C
0C
0C
0C
0C
0C
30
30
C0
C0
ENDCHAR
STARTCHAR asterisk
ENCODING 42
SWIDTH 500 0
DWIDTH 8 0
BBX 6 8 0 8
BITMAP
30
30
FC
FC
30
30
CC
CC
ENDCHAR
STARTCHAR plus
ENCODING 43
SWIDTH 750 0
DWIDTH 12 0
BBX 10 10 0 2
BITMAP
0C00
0C00
0C00
0C00
FFC0
FFC0
0C00
0C00
0C00
0C00
ENDCHAR
STARTCHAR comma
ENCODING 44
SWIDTH 250 0
DWIDTH 4 0
BBX 2 6 0 -4
BITMAP
C0
C0
C0
C0
C0
C0
ENDCHAR
STARTCHAR hyphen
ENCODING 45
SWIDTH 500 0
DWIDTH 8 0
BBX 6 2 0 4
BITMAP
FC
FC
ENDCHAR
STARTCHAR period
ENCODING 46
SWIDTH 250 0
DWIDTH 4 0
BBX 2 2 0 0
BITMAP
C0
C0
ENDCHAR
STARTCHAR slash
ENCODING 47
SWIDTH 500 0
DWIDTH 8 0
BBX 6 16 0 0
BITMAP
0C
0C
0C
0C
30
30
30
30
30
30
30
30
C0
C0
C0
C0
ENDCHAR
STARTCHAR zero
ENCODING 48
SWIDTH 750 0
DWIDTH 12 0
BBX 10 16 0 0
BITMAP
3F00
3F00
C0C0
C0C0
C0C0
C0C0
C0C0
C0C0
C0C0
C0C0
C0C0
C0C0
C0C0
C0C0
3F00
3F00
ENDCHAR
STARTCHAR one
ENCODING 49
SWIDTH 625 0
DWIDTH 10 0
BBX 6 16 0 0
BITMAP
0C
0C
3C
3C
CC
CC
0C
0C
0C
0C
0C
0C
0C
0C
0C
0C
ENDCHAR
STARTCHAR two
ENCODING 50
SWIDTH 751 0
DWIDTH 12 0
BBX 10 16 0 0
BITMAP
3F00
3F00
C0C0
C0C0
00C0
00C0
00C0
00C0
0300
0300
0C00
0C00
3000
3000
FFC0
FFC0
ENDCHAR
STARTCHAR three
ENCODING 51
SWIDTH 750 0
DWIDTH 12 0
BBX 10 16 0 0
BITMAP
3F00
3F00
C0C0
C0C0
00C0
00C0
3F00
3F00
00C0
00C0
00C0
00C0
C0C0
C0C0
3F00
3F00
ENDCHAR
STARTCHAR four
ENCODING 52
SWIDTH 750 0
DWIDTH 12 0
BBX 10 16 0 0
BITMAP
0300
0300
0F00
0F00
3300
3300
3300
3300
C300
C300
FFC0
FFC0
0300
0300
0300
0300
ENDCHAR
STARTCHAR five
ENCODING 53
SWIDTH 750 0
DWIDTH 12 0
BBX 10 16 0 0
BITMAP
3FC0
3FC0
3000
3000
C000
C000
FF00
FF00
00C0
00C0
00C0
00C0
C0C0
C0C0
3F00
3F00
ENDCHAR
STARTCHAR six
ENCODING 54
SWIDTH 750 0
DWIDTH 12 0
BBX 10 16 0 0
BITMAP
3F00
3F00
C0C0
C0C0
C000
C000
FF00
FF00
C0C0
C0C0
C0C0
C0C0
C0C0
C0C0
3F00
3F00
ENDCHAR
STARTCHAR seven
ENCODING 55
SWIDTH 750 0
DWIDTH 12 0
BBX 10 16 0 0
BITMAP
FFC0
FFC0
0300
0300
0300
0300
0C00
0C00
0C00
0C00
3000
3000
3000
3000
3000
3000
ENDCHAR
STARTCHAR eight
ENCODING 56
SWIDTH 750 0
DWIDTH 12 0
BBX 10 16 0 0
BITMAP
3F00
3F00
C0C0
C0C0
C0C0
C0C0
3F00
3F00
C0C0
C0C0
C0C0
C0C0
C0C0
C0C0
3F00
3F00
ENDCHAR
STARTCHAR nine
ENCODING 57
SWIDTH 750 0
DWIDTH 12 0
BBX 10 16 0 0
BITMAP
3F00
3F00
C0C0
C0C0
C0C0
C0C0
C0C0
C0C0
3FC0
3FC0
00C0
00C0
C0C0
C0C0
3F00
3F00
ENDCHAR
STARTCHAR colon
ENCODING 58
SWIDTH 250 0
DWIDTH 4 0
BBX 2 12 0 0
BITMAP
C0
C0
00
00
00
00
00
00
00
00
C0
C0
ENDCHAR
STARTCHAR semicolon
ENCODING 59
SWIDTH 250 0
DWIDTH 4 0
BBX 2 16 0 -4
BITMAP
C0
C0
00
00
00
00
00
00
00
00
C0
C0
C0
C0
C0
C0
ENDCHAR
STARTCHAR less
ENCODING 60
SWIDTH 750 0
DWIDTH 12 0
BBX 10 10 0 2
BITMAP
00C0
00C0
3F00
3F00
C000
C000
3F00
3F00
00C0
00C0
ENDCHAR
STARTCHAR equal
ENCODING 61
SWIDTH 750 0
DWIDTH 12 0
BBX 10 6 0 4
BITMAP
FFC0
FFC0
0000
0000
FFC0
FFC0
ENDCHAR
STARTCHAR greater
ENCODING 62
SWIDTH 750 0
DWIDTH 12 0
BBX 10 10 0 2
BITMAP
C000
C000
3F00
3F00
00C0
00C0
3F00
3F00
C000
C000
ENDCHAR
STARTCHAR question
ENCODING 63
SWIDTH 750 0
DWIDTH 12 0
BBX 10 16 0 0
BITMAP
3F00
3F00
C0C0
C0C0
00C0
00C0
0300
0300
0C00
0C00
0C00
0C00
0000
0000
0C00
0C00
ENDCHAR
STARTCHAR at
ENCODING 64
SWIDTH 1375 0
DWIDTH 22 0
BBX 20 20 0 -4
BITMAP
03FF00
03FF00
3C00C0
3C00C0
30F330
30F330
C30F30
C30F30
CC0C30
CC0C30
CC0C30
CC0C30
CC3CC0
CC3CC0
C3CF00
C3CF00
300030
300030
0FFFC0
0FFFC0
ENDCHAR
STARTCHAR A
ENCODING 65
SWIDTH 1000 0
DWIDTH 16 0
BBX 14 16 0 0
BITMAP
0300
0300
0CC0
0CC0
0CC0
0CC0
0CC0
0CC0
3030
3030
3FF0
3FF0
C00C
C00C
C00C
C00C
ENDCHAR
STARTCHAR B
ENCODING 66
SWIDTH 875 0
DWIDTH 14 0
BBX 12 16 0 0
BITMAP
FFC0
FFC0
C030
C030
C030
C030
FFF0
FFF0
C030
C030
C030
C030
C030
C030
FFC0
FFC0
ENDCHAR
STARTCHAR C
ENCODING 67
SWIDTH 875 0
DWIDTH 14 0
BBX 12 16 0 0
BITMAP
0FC0
0FC0
3030
3030
C000
C000
C000
C000
C000
C000
C000
C000
3030
3030
0FC0
0FC0
ENDCHAR
STARTCHAR D
ENCODING 68
SWIDTH 875 0
DWIDTH 14 0
BBX 12 16 0 0
BITMAP
FF00
FF00
C0C0
C0C0
C030
C030
C030
C030
C030
C030
C030
C030
C0C0
C0C0
FF00
FF00
ENDCHAR
STARTCHAR E
ENCODING 69
SWIDTH 750 0
DWIDTH 12 0
BBX 10 16 0 0
BITMAP
FFC0
FFC0
C000
C000
C000
C000
FFC0
FFC0
C000
C000
C000
C000
C000
C000
FFC0
FFC0
ENDCHAR
STARTCHAR F
ENCODING 70
SWIDTH 750 0
DWIDTH 12 0
BBX 10 16 0 0
BITMAP
FFC0
FFC0
C000
C000
C000
C000
FF00
FF00
C000
C000
C000
C000
C000
C000
C000
C000
ENDCHAR
STARTCHAR G
ENCODING 71
SWIDTH 1000 0
DWIDTH 16 0
BBX 14 16 0 0
BITMAP
0FC0
0FC0
3030
3030
C00C
C00C
C000
C000
C0FC
C0FC
C00C
C00C
3030
3030
0FC0
0FC0
ENDCHAR
STARTCHAR H
ENCODING 72
SWIDTH 875 0
DWIDTH 14 0
BBX 12 16 0 0
BITMAP
C030
C030
C030
C030
C030
C030
FFF0
FFF0
C030
C030
C030
C030
C030
C030
C030
C030
ENDCHAR
STARTCHAR I
ENCODING 73
SWIDTH 250 0
DWIDTH 4 0
BBX 2 16 0 0
BITMAP
C0
C0
C0
C0
C0
C0
C0
C0
C0
C0
C0
C0
C0
C0
C0
C0
ENDCHAR
STARTCHAR J
ENCODING 74
SWIDTH 625 0
DWIDTH 10 0
BBX 8 16 0 0
BITMAP
03
03
03
03
03
03
03
03
03
03
C3
C3
C3
C3
3C
3C
ENDCHAR
STARTCHAR K
ENCODING 75
SWIDTH 875 0
DWIDTH 14 0
BBX 12 16 0 0
BITMAP
C030
C030
C0C0
C0C0
C300
C300
CF00
CF00
F300
F300
C0C0
C0C0
C0C0
C0C0
C030
C030
ENDCHAR
STARTCHAR L
ENCODING 76
SWIDTH 750 0
DWIDTH 12 0
BBX 10 16 0 0
BITMAP
C000
C000
C000
C000
C000
C000
C000
C000
C000
C000
C000
C000
C000
C000
FFC0
FFC0
ENDCHAR
STARTCHAR M
ENCODING 77
SWIDTH 1000 0
DWIDTH 16 0
BBX 14 16 0 0
BITMAP
C00C
C00C
F03C
F03C
F03C
F03C
CCCC
CCCC
CCCC
CCCC
CCCC
CCCC
C30C
C30C
C30C
C30C
ENDCHAR
STARTCHAR N
ENCODING 78
SWIDTH 875 0
DWIDTH 14 0
BBX 12 16 0 0
BITMAP
C030
C030
F030
F030
CC30
CC30
CC30
CC30
C330
C330
C330
C330
C0F0
C0F0
C030
C030
ENDCHAR
STARTCHAR O
ENCODING 79
SWIDTH 1000 0
DWIDTH 16 0
BBX 14 16 0 0
BITMAP
0FC0
0FC0
3030
3030
C00C
C00C
C00C
C00C
C00C
C00C
C00C
C00C
3030
3030
0FC0
0FC0
ENDCHAR
STARTCHAR P
ENCODING 80
SWIDTH 750 0
DWIDTH 12 0
BBX 10 16 0 0
BITMAP
FF00
FF00
C0C0
C0C0
C0C0
C0C0
C0C0
C0C0
FF00
FF00
C000
C000
C000
C000
C000
C000
ENDCHAR
STARTCHAR Q
ENCODING 81
SWIDTH 1000 0
DWIDTH 16 0
BBX 14 16 0 0
BITMAP
0FC0
0FC0
3030
3030
C00C
C00C
C00C
C00C
C00C
C00C
C3CC
C3CC
3030
3030
0FCC
0FCC
ENDCHAR
STARTCHAR R
ENCODING 82
SWIDTH 875 0
DWIDTH 14 0
BBX 12 16 0 0
BITMAP
FFC0
FFC0
C030
C030
C030
C030
FFC0
FFC0
C300
C300
C0C0
C0C0
C0C0
C0C0
C030
C030
ENDCHAR
STARTCHAR S
ENCODING 83
SWIDTH 875 0
DWIDTH 14 0
BBX 12 16 0 0
BITMAP
3FC0
3FC0
C030
C030
C000
C000
3C00
3C00
03C0
03C0
0030
0030
C030
C030
3FC0
3FC0
ENDCHAR
STARTCHAR T
ENCODING 84
SWIDTH 750 0
DWIDTH 12 0
BBX 10 16 0 0
BITMAP
FFC0
FFC0
0C00
0C00
0C00
0C00
0C00
0C00
0C00
0C00
0C00
0C00
0C00
0C00
0C00
0C00
ENDCHAR
STARTCHAR U
ENCODING 85
SWIDTH 875 0
DWIDTH 14 0
BBX 12 16 0 0
BITMAP
C030
C030
C030
C030
C030
C030
C030
C030
C030
C030
C030
C030
C030
C030
3FC0
3FC0
ENDCHAR
STARTCHAR V
ENCODING 86
SWIDTH 1000 0
DWIDTH 16 0
BBX 14 16 0 0
BITMAP
C00C
C00C
C00C
C00C
3030
3030
3030
3030
0CC0
0CC0
0CC0
0CC0
0300
0300
0300
0300
ENDCHAR
STARTCHAR W
ENCODING 87
SWIDTH 1250 0
DWIDTH 20 0
BBX 22 16 -2 0
BITMAP
C0300C
C0300C
C0CC0C
C0CC0C
30CC30
30CC30
30CC30
30CC30
330330
330330
330330
330330
0C00C0
0C00C0
0C00C0
0C00C0
ENDCHAR
STARTCHAR X
ENCODING 88
SWIDTH 875 0
DWIDTH 14 0
BBX 12 16 0 0
BITMAP
C030
C030
30C0
30C0
30C0
30C0
0F00
0F00
0F00
0F00
30C0
30C0
30C0
30C0
C030
C030
ENDCHAR
STARTCHAR Y
ENCODING 89
SWIDTH 1000 0
DWIDTH 16 0
BBX 14 16 0 0
BITMAP
C00C
C00C
3030
3030
3030
3030
0CC0
0CC0
0300
0300
0300
0300
0300
0300
0300
0300
ENDCHAR
STARTCHAR Z
ENCODING 90
SWIDTH 875 0
DWIDTH 14 0
BBX 12 16 0 0
BITMAP
3FF0
3FF0
00C0
00C0
0300
0300
0300
0300
0C00
0C00
0C00
0C00
3000
3000
FFF0
FFF0
ENDCHAR
STARTCHAR bracketleft
ENCODING 91
SWIDTH 375 0
DWIDTH 6 0
BBX 4 20 0 -4
BITMAP
F0
F0
C0
C0
C0
C0
C0
C0
C0
C0
C0
C0
C0
C0
C0
C0
C0
C0
F0
F0
ENDCHAR
STARTCHAR backslash
ENCODING 92
SWIDTH 500 0
DWIDTH 8 0
BBX 6 16 0 0
BITMAP
C0
C0
C0
C0
30
30
30
30
30
30
30
30
0C
0C
0C
0C
ENDCHAR
STARTCHAR bracketright
ENCODING 93
SWIDTH 375 0
DWIDTH 6 0
BBX 4 20 0 -4
BITMAP
F0
F0
30
30
30
30
30
30
30
30
30
30
30
30
30
30
30
30
F0
F0
ENDCHAR
STARTCHAR asciicircum
ENCODING 94
SWIDTH 750 0
DWIDTH 12 0
BBX 10 8 0 8
BITMAP
0C00
0C00
3300
3300
3300
3300
C0C0
C0C0
ENDCHAR
STARTCHAR underscore
ENCODING 95
SWIDTH 875 0
DWIDTH 14 0
BBX 12 2 0 -4
BITMAP
FFF0
FFF0
ENDCHAR
STARTCHAR grave
ENCODING 96
SWIDTH 500 0
DWIDTH 8 0
BBX 4 4 0 12
BITMAP
C0
C0
30
30
ENDCHAR
STARTCHAR a
ENCODING 97
SWIDTH 750 0
DWIDTH 12 0
BBX 10 12 0 0
BITMAP
3F00
3F00
C0C0
C0C0
3FC0
3FC0
C0C0
C0C0
C3C0
C3C0
3CC0
3CC0
ENDCHAR
STARTCHAR b
ENCODING 98
SWIDTH 750 0
DWIDTH 12 0
BBX 10 16 0 0
BITMAP
C000
C000
C000
C000
CF00
CF00
F0C0
F0C0
C0C0
C0C0
C0C0
C0C0
F0C0
F0C0
CF00
CF00
ENDCHAR
STARTCHAR c
ENCODING 99
SWIDTH 750 0
DWIDTH 12 0
BBX 10 12 0 0
BITMAP
3F00
3F00
C0C0
C0C0
C000
C000
C000
C000
C0C0
C0C0
3F00
3F00
ENDCHAR
STARTCHAR d
ENCODING 100
SWIDTH 750 0
DWIDTH 12 0
BBX 10 16 0 0
BITMAP
00C0
00C0
00C0
00C0
3CC0
3CC0
C3C0
C3C0
C0C0
C0C0
C0C0
C0C0
C3C0
C3C0
3CC0
3CC0
ENDCHAR
STARTCHAR e
ENCODING 101
SWIDTH 750 0
DWIDTH 12 0
BBX 10 12 0 0
BITMAP
3F00
3F00
C0C0
C0C0
FFC0
FFC0
C000
C000
C0C0
C0C0
3F00
3F00
ENDCHAR
STARTCHAR f
ENCODING 102
SWIDTH 500 0
DWIDTH 8 0
BBX 6 16 0 0
BITMAP
0C
0C
30
30
FC
FC
30
30
30
30
30
30
30
30
30
30
ENDCHAR
STARTCHAR g
ENCODING 103
SWIDTH 750 0
DWIDTH 12 0
BBX 10 16 0 -4
BITMAP
3CC0
3CC0
C3C0
C3C0
C0C0
C0C0
C0C0
C0C0
C3C0
C3C0
3CC0
3CC0
00C0
00C0
FF00
FF00
ENDCHAR
STARTCHAR h
ENCODING 104
SWIDTH 750 0
DWIDTH 12 0
BBX 10 16 0 0
BITMAP
C000
C000
C000
C000
CF00
CF00
F0C0
F0C0
C0C0
C0C0
C0C0
C0C0
C0C0
C0C0
C0C0
C0C0
ENDCHAR
STARTCHAR i
ENCODING 105
SWIDTH 250 0
DWIDTH 4 0
BBX 2 16 0 0
BITMAP
C0
C0
00
00
C0
C0
C0
C0
C0
C0
C0
C0
C0
C0
C0
C0
ENDCHAR
STARTCHAR j
ENCODING 106
SWIDTH 250 0
DWIDTH 4 0
BBX 4 20 -2 -4
BITMAP
30
30
00
00
30
30
30
30
30
30
30
30
30
30
30
30
30
30
C0
C0
ENDCHAR
STARTCHAR k
ENCODING 107
SWIDTH 625 0
DWIDTH 10 0
BBX 8 16 0 0
BITMAP
C0
C0
C0
C0
C3
C3
CC
CC
F0
F0
CC
CC
CC
CC
C3
C3
ENDCHAR
STARTCHAR l
ENCODING 108
SWIDTH 250 0
DWIDTH 4 0
BBX 2 16 0 0
BITMAP
C0
C0
C0
C0
C0
C0
C0
C0
C0
C0
C0
C0
C0
C0
C0
C0
ENDCHAR
STARTCHAR m
ENCODING 109
SWIDTH 1000 0
DWIDTH 16 0
BBX 14 12 0 0
BITMAP
CFF0
CFF0
F30C
F30C
C30C
C30C
C30C
C30C
C30C
C30C
C30C
C30C
ENDCHAR
STARTCHAR n
ENCODING 110
SWIDTH 750 0
DWIDTH 12 0
BBX 10 12 0 0
BITMAP
FF00
FF00
C0C0
C0C0
C0C0
C0C0
C0C0
C0C0
C0C0
C0C0
C0C0
C0C0
ENDCHAR
STARTCHAR o
ENCODING 111
SWIDTH 750 0
DWIDTH 12 0
BBX 10 12 0 0
BITMAP
3F00
3F00
C0C0
C0C0
C0C0
C0C0
C0C0
C0C0
C0C0
C0C0
3F00
3F00
ENDCHAR
STARTCHAR p
ENCODING 112
SWIDTH 750 0
DWIDTH 12 0
BBX 10 16 0 -4
BITMAP
CF00
CF00
F0C0
F0C0
C0C0
C0C0
C0C0
C0C0
F0C0
F0C0
CF00
CF00
C000
C000
C000
C000
ENDCHAR
STARTCHAR q
ENCODING 113
SWIDTH 750 0
DWIDTH 12 0
BBX 10 16 0 -4
BITMAP
3CC0
3CC0
C3C0
C3C0
C0C0
C0C0
C0C0
C0C0
C3C0
C3C0
3CC0
3CC0
00C0
00C0
00C0
00C0
ENDCHAR
STARTCHAR r
ENCODING 114
SWIDTH 500 0
DWIDTH 8 0
BBX 6 12 0 0
BITMAP
CC
CC
F0
F0
C0
C0
C0
C0
C0
C0
C0
C0
ENDCHAR
STARTCHAR s
ENCODING 115
SWIDTH 750 0
DWIDTH 12 0
BBX 10 12 0 0
BITMAP
3F00
3F00
C0C0
C0C0
3C00
3C00
0300
0300
C0C0
C0C0
3F00
3F00
ENDCHAR
STARTCHAR t
ENCODING 116
SWIDTH 375 0
DWIDTH 6 0
BBX 6 16 -2 0
BITMAP
30
30
30
30
FC
FC
30
30
30
30
30
30
30
30
3C
3C
ENDCHAR
STARTCHAR u
ENCODING 117
SWIDTH 750 0
DWIDTH 12 0
BBX 10 12 0 0
BITMAP
C0C0
C0C0
C0C0
C0C0
C0C0
C0C0
C0C0
C0C0
C3C0
C3C0
3CC0
3CC0
ENDCHAR
STARTCHAR v
ENCODING 118
SWIDTH 750 0
DWIDTH 12 0
BBX 10 12 0 0
BITMAP
C0C0
C0C0
C0C0
C0C0
3300
3300
3300
3300
0C00
0C00
0C00
0C00
ENDCHAR
STARTCHAR w
ENCODING 119
SWIDTH 1250 0
DWIDTH 20 0
BBX 18 12 0 0
BITMAP
C0C0C0
C0C0C0
C330C0
C330C0
333300
333300
333300
333300
0C0C00
0C0C00
0C0C00
0C0C00
ENDCHAR
STARTCHAR x
ENCODING 120
SWIDTH 750 0
DWIDTH 12 0
BBX 10 12 0 0
BITMAP
C0C0
C0C0
3300
3300
0C00
0C00
0C00
0C00
3300
3300
C0C0
C0C0
ENDCHAR
STARTCHAR y
ENCODING 121
SWIDTH 750 0
DWIDTH 12 0
BBX 10 16 0 -4
BITMAP
C0C0
C0C0
C0C0
C0C0
3300
3300
3300
3300
0C00
0C00
0C00
0C00
0C00
0C00
3000
3000
ENDCHAR
STARTCHAR z
ENCODING 122
SWIDTH 750 0
DWIDTH 12 0
BBX 10 12 0 0
BITMAP
FFC0
FFC0
0300
0300
0C00
0C00
0C00
0C00
3000
3000
FFC0
FFC0
ENDCHAR
STARTCHAR braceleft
ENCODING 123
SWIDTH 500 0
DWIDTH 8 0
BBX 6 20 0 -4
BITMAP
0C
0C
30
30
30
30
30
30
C0
C0
30
30
30
30
30
30
30
30
0C
0C
ENDCHAR
STARTCHAR bar
ENCODING 124
SWIDTH 250 0
DWIDTH 4 0
BBX 2 20 0 -4
BITMAP
C0
C0
C0
C0
C0
C0
C0
C0
C0
C0
C0
C0
C0
C0
C0
C0
C0
C0
C0
C0
ENDCHAR
STARTCHAR braceright
ENCODING 125
SWIDTH 500 0
DWIDTH 8 0
BBX 6 20 0 -4
BITMAP
C0
C0
30
30
30
30
30
30
0C
0C
30
30
30
30
30
30
30
30
C0
C0
ENDCHAR
STARTCHAR asciitilde
ENCODING 126
SWIDTH 750 0
DWIDTH 12 0
BBX 10 4 0 6
BITMAP
FCC0
FCC0
CF00
CF00
ENDCHAR
ENDFONT
